<svg xmlns="http://www.w3.org/2000/svg" viewBox="0 0 533.5 544.3">
  <path fill="#4285f4" d="M533.5 278.4c0-17.4-1.5-34.1-4.3-50.3H272.1v95.1h146.6c-6.3 33.9-25.1 62.6-53.6 81.6v67h86.7c50.7-46.7 81.7-115.4 81.7-193.4z"></path>
  <path fill="#34a853" d="M272.1 544.3c72.6 0 133.6-24 178.2-65.4l-86.7-67c-24.1 16.2-55 25.7-91.5 25.7-70.5 0-130.3-47.6-151.7-111.3h-89v69.8c44.3 87.4 134.3 148.2 240.7 148.2z"></path>
  <path fill="#fbbc04" d="M120.4 326.3c-10.2-30-10.2-62.3 0-92.3v-69.8h-89c-39.6 77.5-39.6 167.3 0 244.8l89-69.7z"></path>
  <path fill="#ea4335" d="M272.1 107.7c38.9-.6 76.1 13.6 104.9 39.9l78.5-78.5C423.3 24.4 351.2-2.2 272.1 0 165.7 0 75.7 60.8 31.4 148.2l89 69.8c21.4-63.7 81.2-111.3 151.7-110.3z"></path>
</svg>
