<svg xmlns="http://www.w3.org/2000/svg" version="1.0" width="1440.000000pt" height="1440.000000pt" viewBox="0 0 1440.000000 1440.000000" preserveAspectRatio="xMidYMid meet">

<g transform="translate(0.000000,1440.000000) scale(0.100000,-0.100000)" fill="#ffffff" stroke="none">
<path d="M6785 14384 c-380 -29 -667 -65 -970 -125 -2156 -421 -4007 -1814 -5016 -3774 -420 -815 -671 -1683 -765 -2635 -22 -222 -30 -849 -15 -1091 42 -664 166 -1292 373 -1898 730 -2135 2416 -3799 4558 -4499 571 -187 1167 -301 1784 -341 204 -14 714 -14 921 -1 1978 128 3795 1050 5066 2571 989 1183 1564 2630 1660 4178 15 243 6 850 -15 1076 -116 1201 -502 2300 -1161 3300 -519 789 -1218 1495 -2004 2024 -1004 676 -2122 1075 -3356 1197 -151 15 -925 28 -1060 18z m950 -244 c1410 -118 2698 -629 3795 -1505 790 -632 1447 -1441 1894 -2334 640 -1277 868 -2697 660 -4121 -105 -724 -317 -1397 -654 -2075 -594 -1197 -1515 -2193 -2665 -2882 -1373 -823 -2997 -1143 -4600 -907 -1813 267 -3443 1239 -4543 2709 -1108 1480 -1576 3339 -1307 5195 322 2220 1725 4167 3735 5184 892 452 1788 690 2820 750 120 7 734 -3 865 -14z" fill="#ffffff"/>
<path d="M8420 13488 l39 -93 72 -17 72 -17 74 66 c40 36 72 68 69 70 -2 2 -29 10 -59 17 l-55 13 -42 -34 -43 -33 -22 49 c-22 46 -26 50 -75 60 -28 6 -55 11 -59 11 -5 0 9 -42 29 -92z" fill="#ffffff"/>
<path d="M6155 13378 c-115 -18 -327 -57 -332 -61 -4 -5 136 -809 143 -816 5 -5 155 17 161 23 2 2 -7 68 -21 147 -15 79 -26 148 -26 154 0 6 46 19 103 29 180 32 252 72 293 160 48 103 22 239 -60 314 -65 60 -124 72 -261 50z m137 -177 c39 -44 39 -108 1 -151 -24 -27 -42 -34 -131 -52 -57 -11 -105 -18 -108 -16 -6 7 -45 221 -40 226 11 10 157 31 200 28 41 -3 55 -9 78 -35z" fill="#ffffff"/>
<path d="M8348 13349 c-111 -18 -188 -109 -188 -223 1 -97 72 -176 240 -266 121 -65 150 -91 150 -134 -1 -61 -49 -96 -132 -96 -105 1 -182 60 -194 150 -7 54 -4 52 -110 65 -49 6 -52 5 -56 -19 -9 -45 12 -140 40 -186 56 -91 170 -147 319 -157 104 -7 160 8 217 58 61 54 89 114 89 193 0 117 -48 173 -238 276 -110 59 -165 105 -165 136 0 8 11 26 25 39 20 21 34 25 82 25 61 0 127 -24 152 -54 8 -10 17 -36 20 -59 l6 -42 80 -17 c43 -9 83 -14 87 -12 4 3 8 21 8 40 0 132 -87 231 -235 267 -83 21 -142 25 -197 16z" fill="#ffffff"/>
<path d="M3947 12566 c-189 -78 -283 -213 -243 -349 18 -63 79 -127 141 -147 55 -18 163 -6 275 30 153 51 209 43 224 -32 14 -73 -74 -169 -168 -183 -47 -7 -83 4 -131 41 l-34 26 -61 -48 c-33 -26 -60 -50 -60 -53 0 -15 77 -80 120 -102 34 -18 62 -23 116 -24 61 0 80 5 147 38 88 44 188 131 219 191 26 50 28 144 6 197 -23 52 -86 119 -133 140 -61 28 -125 23 -280 -21 -156 -45 -194 -48 -218 -22 -37 40 -12 100 62 150 75 51 109 52 187 2 19 -12 27 -9 83 30 33 24 61 49 61 55 0 18 -64 72 -107 90 -53 22 -138 19 -206 -9z" fill="#ffffff"/>
<path d="M10240 12218 c-128 -183 -234 -338 -237 -344 -3 -8 426 -321 504 -367 8 -5 26 14 51 51 l40 58 -190 133 c-114 81 -187 139 -184 146 4 13 101 152 116 169 5 4 41 -16 82 -46 40 -29 117 -84 170 -121 l97 -67 24 32 c13 18 32 45 41 59 l16 26 -127 90 c-71 50 -147 103 -171 118 -24 16 -41 33 -39 40 3 6 26 41 52 78 43 61 49 67 65 55 84 -59 337 -236 346 -241 13 -8 88 99 79 113 -5 8 -492 350 -499 350 -1 0 -108 -150 -236 -332z" fill="#ffffff"/>
<path d="M6975 12029 c-526 -23 -1068 -139 -1560 -334 -152 -60 -467 -212 -610 -295 -396 -227 -686 -451 -1020 -785 -408 -408 -675 -780 -929 -1295 -649 -1316 -655 -2888 -15 -4208 256 -529 528 -911 944 -1327 398 -399 776 -671 1275 -919 615 -305 1241 -465 1938 -495 995 -43 1963 218 2815 760 286 183 529 380 802 654 409 408 675 779 929 1295 654 1327 654 2913 0 4240 -254 515 -522 889 -929 1295 -416 416 -797 688 -1320 941 -495 239 -1000 386 -1549 448 -119 14 -541 39 -586 34 -8 0 -91 -4 -185 -9z m155 -484 l0 -255 -615 0 -615 0 0 160 c0 188 -25 161 191 214 307 76 689 129 967 135 l72 1 0 -255z m548 229 c238 -24 539 -80 737 -137 l80 -23 3 -162 2 -162 -600 0 -600 0 0 256 0 256 118 -6 c64 -4 182 -14 260 -22z m-1868 -339 l0 -145 -357 0 -358 1 46 24 c139 72 399 179 629 258 39 14 40 11 40 -138z m2932 99 c151 -53 284 -108 449 -188 l114 -54 -357 -1 -358 -1 0 145 c0 82 4 145 9 145 5 0 69 -21 143 -46z m-2932 -964 l0 -630 -630 0 -630 0 2 512 3 513 95 63 c52 35 136 88 185 118 l90 54 443 0 442 0 0 -630z m1320 0 l0 -630 -615 0 -615 0 0 630 0 630 615 0 615 0 0 -630z m1370 0 l0 -630 -600 0 -600 0 0 630 0 630 600 0 600 0 0 -630z m1076 569 c55 -33 139 -86 185 -118 l84 -57 3 -512 2 -512 -630 0 -630 0 0 630 0 630 442 0 443 0 101 -61z m-5119 -1196 c-2 -2 -217 -2 -477 -1 l-473 3 83 105 c221 279 464 523 740 744 l125 99 3 -473 c1 -260 1 -475 -1 -477z m5647 823 c256 -210 490 -445 688 -694 54 -68 98 -125 98 -127 0 -3 -214 -5 -475 -5 l-475 0 0 475 c0 450 1 475 18 466 9 -5 75 -57 146 -115z m-5644 -1546 l0 -630 -630 0 -630 0 0 441 c0 312 3 447 11 462 23 42 162 263 196 310 l35 47 509 0 509 0 0 -630z m1350 0 l0 -630 -630 0 -630 0 0 630 0 630 630 0 630 0 0 -630z m1320 0 l0 -630 -615 0 -615 0 0 630 0 630 615 0 615 0 0 -630z m1370 0 l0 -630 -600 0 -600 0 0 630 0 630 600 0 600 0 0 -630z m1350 0 l0 -630 -630 0 -630 0 0 630 0 630 630 0 630 0 0 -630z m1171 541 c32 -46 85 -130 118 -185 l61 -101 0 -443 0 -442 -630 0 -630 0 0 630 0 630 512 -2 512 -3 57 -84z m-7911 -816 l0 -355 -145 0 c-80 0 -145 4 -145 9 0 13 74 224 109 312 35 89 172 389 177 389 2 0 4 -160 4 -355z m8334 31 c43 -99 136 -358 136 -377 0 -5 -63 -9 -145 -9 l-145 0 1 358 1 357 54 -114 c31 -63 75 -159 98 -215z m-8334 -1106 l0 -630 -257 0 -256 0 7 148 c15 318 58 616 133 925 l46 187 163 0 164 0 0 -630z m1350 0 l0 -630 -630 0 -630 0 0 630 0 630 630 0 630 0 0 -630z m1350 0 l0 -630 -630 0 -630 0 0 630 0 630 630 0 630 0 0 -630z m1320 0 l0 -630 -615 0 -615 0 0 630 0 630 615 0 615 0 0 -630z m1370 228 l0 -402 -128 -130 c-70 -72 -165 -175 -211 -228 l-83 -98 -389 0 -389 0 0 630 0 630 600 0 600 0 0 -402z m1350 222 c0 -99 -3 -180 -7 -180 -5 0 -48 7 -98 15 -362 60 -731 -52 -1082 -326 -35 -27 -65 -49 -68 -49 -3 0 -5 162 -5 360 l0 360 630 0 630 0 0 -180z m1350 -450 l0 -630 -49 0 c-47 0 -51 2 -107 63 -127 137 -350 350 -451 432 -199 159 -437 301 -589 352 l-59 20 -3 196 -2 197 630 0 630 0 0 -630z m415 621 c3 -6 23 -80 46 -167 71 -282 120 -620 135 -936 l7 -148 -256 0 -257 0 0 630 0 630 159 0 c90 0 162 -4 166 -9z m-1899 -452 c32 -5 76 -15 97 -20 l37 -10 0 -379 0 -380 -630 0 -630 0 0 184 0 184 78 65 c228 189 468 313 682 352 92 16 285 19 366 4z m380 -125 c131 -63 324 -189 324 -211 0 -20 -65 -290 -92 -380 l-21 -73 -183 0 -184 0 0 366 0 365 23 -6 c12 -4 72 -31 133 -61z m-1599 -661 c-3 -2 -61 -2 -130 -1 l-125 3 126 139 127 139 3 -138 c1 -76 1 -140 -1 -142z m-5387 -708 l0 -615 -167 2 -168 3 -38 150 c-70 279 -119 616 -133 928 l-7 147 256 0 257 0 0 -615z m1350 0 l0 -615 -630 0 -630 0 0 615 0 615 630 0 630 0 0 -615z m1350 0 l0 -615 -630 0 -630 0 0 615 0 615 630 0 630 0 0 -615z m1320 0 l0 -615 -615 0 -615 0 0 615 0 615 615 0 615 0 0 -615z m874 603 c-4 -7 -35 -49 -70 -93 -99 -129 -284 -392 -456 -650 -89 -132 -165 -244 -169 -250 -5 -5 -9 212 -9 498 l0 507 356 0 c281 0 354 -3 348 -12z m3196 -4 c0 -14 -3 -14 -15 -4 -8 7 -15 14 -15 16 0 2 7 4 15 4 8 0 15 -7 15 -16z m596 -131 c-10 -221 -47 -557 -65 -591 -4 -8 -37 32 -86 105 -44 65 -142 200 -217 301 l-138 184 0 74 0 74 257 0 256 0 -7 -147z m-3296 -473 l0 -610 -596 0 c-512 0 -595 2 -591 14 21 54 536 803 701 1019 67 88 125 165 131 173 8 11 46 14 182 14 l173 0 0 -610z m1350 135 l0 -476 -80 -128 -79 -128 -287 -6 c-158 -4 -406 -7 -551 -7 l-263 0 0 610 0 610 630 0 630 0 0 -475z m420 466 c0 -47 -170 -463 -268 -656 l-61 -120 0 393 -1 392 165 0 c96 0 165 -4 165 -9z m-7160 -1688 l0 -306 -21 19 c-39 35 -142 261 -217 477 l-42 117 140 0 140 0 0 -307z m1350 -298 l0 -605 -399 0 -399 0 -144 143 c-79 78 -183 186 -231 240 l-87 99 0 364 0 364 630 0 630 0 0 -605z m1350 0 l0 -605 -630 0 -630 0 0 605 0 605 630 0 630 0 0 -605z m1230 599 c0 -8 -170 -257 -308 -449 -189 -264 -362 -478 -547 -677 l-72 -78 -106 0 -107 0 0 605 0 605 570 0 c314 0 570 -3 570 -6z m1460 -517 l0 -522 -123 -83 -123 -82 -477 0 -477 0 0 605 0 605 600 0 600 0 0 -523z m1060 516 c0 -14 -199 -257 -318 -387 -138 -153 -348 -350 -520 -487 -67 -55 -125 -99 -127 -99 -3 0 -5 221 -5 490 l0 490 485 0 c267 0 485 -3 485 -7z m-2430 -648 l0 -555 -426 0 -426 0 74 83 c201 223 418 510 698 920 40 59 75 107 77 107 1 0 3 -250 3 -555z m-2670 -855 c0 -115 -3 -210 -7 -210 -18 0 -275 131 -353 179 -86 54 -304 214 -315 231 -4 7 116 10 334 10 l341 0 0 -210z m1350 121 l0 -89 -106 -71 c-357 -238 -722 -313 -1079 -222 l-70 17 -3 227 -2 227 630 0 630 0 0 -89z m196 80 c-4 -5 -29 -28 -56 -51 l-50 -42 0 51 0 51 56 0 c30 0 53 -4 50 -9z m1124 -205 l0 -215 -84 -25 c-303 -93 -685 -162 -1063 -192 l-83 -6 0 198 1 199 42 32 c24 18 90 75 147 128 l104 95 468 0 468 0 0 -214z m945 198 c-65 -50 -726 -354 -769 -354 -3 0 -6 83 -6 185 l0 185 398 0 c358 -1 395 -2 377 -16z m-2265 -475 l0 -162 -282 7 c-285 6 -398 13 -398 25 0 4 39 15 87 24 161 34 376 127 522 227 31 21 59 39 64 39 4 1 7 -72 7 -160z" fill="#ffffff"/>
<path d="M3904 2598 c-37 -56 -139 -212 -226 -346 -87 -134 -158 -247 -158 -250 0 -6 110 -82 131 -90 4 -2 37 44 74 102 l68 105 76 16 c42 9 84 19 95 22 17 5 18 -4 11 -224 l-7 -230 88 -56 89 -56 3 304 2 303 128 30 c70 16 163 38 207 48 44 9 84 21 88 24 9 8 -158 120 -177 120 -10 0 -399 -97 -464 -116 -19 -5 -5 20 73 141 53 82 99 153 101 159 2 6 -17 24 -43 40 -27 17 -58 36 -70 44 -22 13 -25 10 -89 -90z" fill="#ffffff"/>
<path d="M9978 2412 c-141 -86 -259 -160 -263 -163 -4 -5 396 -687 421 -718 3 -3 519 303 538 320 10 9 -51 119 -66 119 -5 0 -94 -50 -196 -112 -103 -61 -190 -113 -194 -115 -6 -3 -118 171 -118 185 0 5 78 55 173 112 94 57 174 105 176 106 3 3 -54 111 -65 123 -1 1 -82 -45 -179 -103 -97 -58 -179 -106 -183 -106 -8 1 -92 136 -92 149 0 5 80 56 178 115 97 58 183 110 190 114 10 7 5 23 -24 70 -20 34 -37 62 -38 61 0 0 -117 -71 -258 -157z" fill="#ffffff"/>
<path d="M5189 1971 c-100 -39 -161 -96 -214 -200 -120 -238 -83 -455 100 -573 178 -116 398 -100 525 38 84 91 146 265 138 389 -11 168 -123 295 -307 349 -73 21 -184 20 -242 -3z m229 -145 c58 -21 95 -51 123 -99 64 -111 -4 -346 -122 -424 -37 -24 -53 -28 -114 -28 -62 0 -78 4 -120 30 -101 62 -131 185 -81 327 61 172 176 242 314 194z" fill="#ffffff"/>
<path d="M8859 1936 c-120 -35 -221 -121 -260 -224 -42 -112 -23 -285 46 -422 81 -160 258 -242 420 -195 171 49 258 142 272 289 5 60 5 63 -18 69 -13 4 -52 7 -86 7 l-63 0 0 -45 c0 -172 -198 -249 -317 -124 -65 69 -123 249 -109 341 14 94 99 167 193 168 57 0 90 -14 130 -56 l33 -36 67 39 c36 21 68 43 70 49 6 18 -64 89 -118 119 -45 24 -68 29 -134 32 -45 1 -100 -3 -126 -11z" fill="#ffffff"/>
<path d="M6552 1912 c2 -5 23 -43 47 -85 48 -83 48 -83 152 -89 45 -3 45 -3 108 72 61 72 62 75 39 81 -12 4 -42 7 -65 8 -37 1 -45 -3 -69 -34 -14 -19 -30 -35 -35 -35 -5 0 -19 18 -31 39 -13 22 -32 42 -43 45 -31 9 -107 7 -103 -2z" fill="#ffffff"/>
<path d="M7763 1701 c-34 -3 -64 -9 -68 -12 -6 -6 63 -820 70 -827 2 -2 41 -1 86 3 l81 7 -5 52 c-3 28 -20 216 -38 419 -28 315 -35 367 -48 365 -9 0 -44 -4 -78 -7z" fill="#ffffff"/>
<path d="M6536 1685 c-95 -36 -149 -113 -148 -210 1 -123 76 -195 279 -269 141 -50 163 -67 163 -125 0 -61 -58 -101 -146 -101 -102 0 -170 50 -189 138 l-7 32 -79 0 -79 0 0 -35 c0 -88 67 -193 152 -236 102 -52 269 -60 370 -17 53 23 112 82 134 134 20 47 17 150 -5 199 -34 76 -90 112 -292 189 -52 20 -105 45 -117 56 -31 29 -29 73 6 100 23 19 37 21 104 18 91 -4 126 -24 146 -85 12 -38 16 -41 59 -47 25 -3 64 -6 86 -6 l40 0 -6 49 c-11 94 -62 162 -152 202 -65 29 -257 38 -319 14z" fill="#ffffff"/>
</g>
</svg>